<?xml version="1.0" encoding="UTF-8" standalone="no"?>
<!DOCTYPE svg PUBLIC "-//W3C//DTD SVG 1.1//EN" "http://www.w3.org/Graphics/SVG/1.1/DTD/svg11.dtd">
<svg width="100%" height="100%" viewBox="0 0 399 309" version="1.1" xmlns="http://www.w3.org/2000/svg" xmlns:xlink="http://www.w3.org/1999/xlink" xml:space="preserve" xmlns:serif="http://www.serif.com/" style="fill-rule:evenodd;clip-rule:evenodd;stroke-linejoin:round;stroke-miterlimit:2;">
    <!-- <style>
svg {
      background: white;
      border-radius: 50%;
    }    @media (prefers-color-scheme: dark) {
      :root {
        filter: brightness(2);      }
    }
  </style> -->
    <g id="Layer-1" serif:id="Layer 1" transform="matrix(1,0,0,1,-98.0058,-219.292)">
        <path id="path4154" d="M205.309,351.538C207.054,343.768 208.799,290.237 224.509,291.1C280.358,292.825 337.141,231.711 379.026,360.363C401.741,365.091 418.65,378.439 427.458,387.959C469.652,433.557 371.163,471.89 286.577,468.322C185.543,464.06 99.279,391.254 205.31,351.538L205.309,351.538Z" style="fill:rgb(78,36,124);fill-opacity:0.99;"/>
        <path id="path4248" d="M204.69,351.776C158.987,369.077 149.462,392.575 161.593,413.957C169.032,396.938 187.063,382.481 213.201,373.367C207.749,366.926 204.679,359.689 204.679,352.032C204.679,351.946 204.689,351.862 204.691,351.776L204.69,351.776ZM378.035,357.407C376.852,363.727 373.229,369.646 367.781,374.959C402.215,384.899 428.932,400.432 435.595,419.178C439.607,409.516 437.63,398.951 427.459,387.96C418.651,378.44 401.741,365.091 379.027,360.363C378.698,359.354 378.366,358.39 378.035,357.407Z" style="fill:rgb(64,38,93);fill-opacity:0.99;"/>
        <path id="path4162" d="M375.942,355.317L375.307,358.196C374.891,360.087 373.049,362.463 369.749,364.857C366.448,367.251 361.778,369.66 356.059,371.88C344.622,376.322 328.992,380.028 311.491,381.851C290.079,384.082 265.574,383.635 243.829,375.336C230.03,370.069 218.577,363.678 207.27,352.271L205.646,351.305L204.138,351.305L203.702,350.209C203.184,351.742 201.678,361.322 201.241,367.257C200.839,372.717 200.859,375.995 201.118,379.023L201.545,379.741L201.647,379.918C205.827,387.218 220.816,396.452 235.413,402.572C246.728,407.316 263.275,409.483 282.823,410.527C303.836,411.649 322.592,409.232 339.601,405.226C356.61,401.219 370.603,394.883 377.957,385.333L378.117,385.127L380.995,381.28C380.995,381.28 381.855,378.248 381.857,374.26C381.857,367.808 381.561,361.675 377.893,357.526L375.942,355.317Z"/>
        <path id="rect5246" d="M227.826,370.53C227.826,370.53 225.224,376.484 223.857,384.714C222.49,392.943 223.646,395.702 223.646,395.702C227.318,397.676 231.191,399.528 235.043,401.143C245.374,405.474 262.65,407.985 280.402,408.975C280.402,408.975 281.11,405.732 282.258,397.8C283.407,389.868 282.165,384.405 282.165,384.405C268.865,384.11 255.241,382.141 242.617,377.322C237.367,375.319 232.486,373.132 227.826,370.53Z" style="fill:rgb(88,88,88);fill-opacity:0.57;fill-rule:nonzero;"/>
        <path id="path5420" d="M238.554,290.716C242.304,290.71 253.614,292.142 268.972,300.155C288.115,310.142 288.877,313.424 314.299,315.264C314.299,315.264 322.49,315.912 327.645,310.757C332.799,305.602 330.222,295.293 313.04,293.861C295.858,292.429 285.835,288.706 270.084,289.566C254.334,290.425 234.861,291.284 234.861,291.284L240.015,290.997" style="fill:rgb(56,36,78);fill-opacity:0.51;fill-rule:nonzero;"/>
        <path id="path4262" d="M307.086,276.038C279.832,274.987 251.713,289.843 224.574,289.004L224.623,289.007C222.066,288.866 219.705,289.899 217.845,291.57C215.984,293.241 214.511,295.517 213.236,298.183C210.686,303.515 208.935,310.488 207.609,317.702C206.284,324.915 205.407,332.355 204.751,338.47C204.147,344.091 203.719,348.166 203.384,350.058C177.373,360.004 162.641,372.031 157.135,385.129C151.542,398.435 155.926,412.394 166.724,424.613C188.319,449.051 235.493,468.266 286.487,470.417C329.13,472.216 375.1,463.527 405.492,448.457C420.688,440.922 432.088,431.805 437.043,421.138C441.997,410.471 439.922,398.34 428.998,386.535C420.1,376.919 403.291,363.671 380.617,358.615C370.194,326.963 358.839,306.623 346.568,294.044C334.142,281.307 320.713,276.564 307.086,276.038L307.086,276.038ZM306.923,280.228C319.708,280.722 331.818,284.931 343.565,296.972C355.312,309.014 366.619,329.029 377.032,361.013C377.265,361.726 377.864,362.262 378.598,362.414C400.746,367.024 417.357,380.127 425.92,389.382C436.093,400.375 437.528,410.137 433.239,419.371C428.95,428.604 418.355,437.398 403.629,444.7C374.178,459.303 328.607,467.997 286.664,466.227C236.624,464.116 190.152,444.795 169.864,421.836C159.72,410.356 156.106,398.402 161.002,386.754C165.898,375.105 179.822,363.324 206.045,353.501C206.706,353.252 207.199,352.686 207.353,351.997L207.353,351.995C207.384,351.857 207.402,351.717 207.405,351.576C207.405,351.571 207.405,351.566 207.405,351.562C207.91,349.125 208.289,344.797 208.92,338.919C209.573,332.84 210.442,325.493 211.734,318.46C213.027,311.428 214.768,304.697 217.018,299.992C218.144,297.639 219.399,295.813 220.647,294.691C221.896,293.569 223.025,293.117 224.395,293.192C224.411,293.193 224.428,293.194 224.444,293.194C253.154,294.081 281.352,279.242 306.923,280.229L306.923,280.228Z"/>
        <ellipse id="path4234" cx="239.915" cy="298.334" rx="21.163" ry="9.536" style="fill:rgb(78,36,124);fill-opacity:0.99;"/>
        <path id="path5418" d="M235.701,286.532C231.937,286.538 226.551,286.436 222.361,288.536C218.496,290.473 216.262,293.239 216.262,293.239C214.501,295.413 217.763,298.053 219.523,295.878C219.523,295.878 221.209,293.805 224.239,292.287C226.944,290.931 231.973,290.733 235.708,290.727C238.916,290.721 250.076,292.064 265.15,299.929C284.147,309.84 285.699,313.417 311.297,315.269C314.16,315.558 313.862,314.782 310.988,314.656C288.598,312.829 285.261,309.087 266.888,297.433C251.45,287.641 239.992,286.525 235.701,286.532Z" style="fill-rule:nonzero;"/>
        <path id="path4266" d="M290.227,322.61C282.435,324.797 280.762,326.41 266.074,326.41C251.385,326.41 225.365,308.993 225.365,300.899C225.365,292.805 242.735,293.158 255.218,300.899C290.227,322.61 299.726,319.944 290.227,322.61Z" style="fill:url(#_Linear1);fill-rule:nonzero;"/>
        <path id="path4277" d="M306.66,281.902C295.344,281.932 290.128,282.261 284.431,286.627C294.589,285.379 300.007,286.825 311.413,289.661C324.958,293.029 333.615,295.557 341.397,299.613C338.631,292.607 324.566,284.19 312.423,282.333C310.46,282.033 308.532,281.897 306.66,281.902Z" style="fill:url(#_Linear2);fill-rule:nonzero;"/>
    </g>
    <defs>
        <linearGradient id="_Linear1" x1="0" y1="0" x2="1" y2="0" gradientUnits="userSpaceOnUse" gradientTransform="matrix(-11.1269,50.7496,-50.7496,-11.1269,256.575,268.332)"><stop offset="0" style="stop-color:white;stop-opacity:1"/><stop offset="1" style="stop-color:white;stop-opacity:0"/></linearGradient>
        <linearGradient id="_Linear2" x1="0" y1="0" x2="1" y2="0" gradientUnits="userSpaceOnUse" gradientTransform="matrix(-5.45385,26.5961,-26.5961,-5.45385,314.284,264.161)"><stop offset="0" style="stop-color:white;stop-opacity:1"/><stop offset="1" style="stop-color:white;stop-opacity:0"/></linearGradient>
    </defs>
</svg>
