<?xml version="1.0"?>
<svg xmlns:rdf="http://www.w3.org/1999/02/22-rdf-syntax-ns#" xmlns="http://www.w3.org/2000/svg" xmlns:cc="http://web.resource.org/cc/" xmlns:dc="http://purl.org/dc/elements/1.1/" xmlns:sodipodi="http://inkscape.sourceforge.net/DTD/sodipodi-0.dtd" xmlns:svg="http://www.w3.org/2000/svg" id="svg2" viewBox="0 0 128 128" sodipodi:version="0.32" sodipodi:docname="adventurer_hat.svg" sodipodi:docbase="/home/nicu/Desktop">
  <sodipodi:namedview id="base" bordercolor="#666666" borderopacity="1.0" pagecolor="#ffffff"/>
  <g id="layer1">
    <g id="g2055" transform="translate(-1 4)" fill-rule="evenodd">
      <path id="path4735" d="m60.031 13.344c-4.503 1.555-9.469-2.203-13.828 1.347-9.38 6.227-8.538 19.35-10.172 29.309-3.283 1.987-0.793 6.417-3.312 9.125 1.329 5.158-4.225 4.833-7.969 5.625-6.81 1.633-14.651 0.209-20.531 4.594 0.9693 11.441 14.124 15.448 23.453 18.208 25.753 6.393 53.143 7.603 79.248 2.584 8.03-1.781 19.84-5.281 19.46-15.448-1.85-9.778-14.08-12.205-22.44-10.344-4.267-10.027-2.8-21.352-6.471-31.563-6.614-14.084-23.885-15.738-37.438-13.437z"/>
      <path id="path1295" fill="#4c2200" d="m100.81 59.125c-19.775 6.183-67.271 8.68-91.31 3.687-1.6649 0.369-2.8539 0.819-3.0938 1.5 0.6793 24.113 112.43 28.19 117.53 7.813 3.05-7.981-8.34-15.111-22.1-11.375-0.38-0.135-0.73-0.742-1.03-1.625z"/>
      <path id="path2102" fill="#632d00" d="m67.781 14.5c-5.774 0.26-10.415 1.368-11.625 1.75-1.188-0.679-2.904-2.044-7.281-0.656-10.726 2.791-10.012 26.195-11.937 37.906 20.47-1.507 43.369-0.27 63.122 2.469-1.391-7.856-2.03-23.09-4.31-28.157-5.519-11.78-18.346-13.745-27.969-13.312z"/>
      <path id="path1294" sodipodi:nodetypes="csccccc" fill="#b16f37" d="m47.314 56.526c-5.871 0.102-9.908 0.411-10.673 0.962-0.162 0.117-0.385 0.235-0.629 0.353-0.075 0.215-0.139 0.475-0.22 0.667-8.899 3.899-27.884 3.515-29.152 5.457 31.615 10.086 92.146-1.19 96.79-3.488 0.78-3.417-42.261-4.194-56.116-3.951z"/>
      <path id="path1306" sodipodi:nodetypes="csccccc" fill="#8e4000" d="m47.314 56.054c-5.871 0.103-9.908 0.411-10.673 0.963-0.162 0.117-0.385 0.235-0.629 0.353-0.075 0.214-0.139 0.475-0.22 0.667-8.899 3.899-24.135 3.431-28.319 5.374 35.102 9.88 98.657-3.934 95.797-3.156 0.19-3.25-42.101-4.443-55.956-4.201z"/>
      <path id="path1316" sodipodi:nodetypes="ccccc" fill="#371800" d="m50.567 15.416c9.283 7.585-0.962 28.924-4.754 33.452-6.793 9.509 22.754 8.83 20.886 0.849-9.679-4.415-9.849-16.132-9.509-31.754-1.564-1.677-3.736-0.509-6.623-2.547z"/>
      <path id="path1310" sodipodi:nodetypes="cccccc" d="m36.473 46.107c19.471-13.867 47.773-0.522 62.999 5.308 1.108 1.093 3.858 8.273 3.148 8.146-13.568-2.222-54.437-3.886-67.513-1.169-0.594 0.255-1.166-5.34 0.39-6.531 1.843-1.582-0.135-4.38 0.976-5.754z"/>
      <path id="path1312" sodipodi:nodetypes="ccc" fill="#512400" d="m63.306 27.506c-2.206-19.966 25.881-11.956 25.898 6.262-3.778-10.511-21.176-18.752-25.898-6.262z"/>
      <path id="path1314" sodipodi:nodetypes="cccc" fill="#512400" d="m50.719 17.344c-4.564 0.276-9.828 13.812-8.383 13.437 2.428-7.646 9.721-14.5 10.135-4.618 0.847-2.757 1.417-7.389-1.752-8.819z"/>
    </g>
  </g>
  <metadata>
    <rdf:RDF>
      <cc:Work>
        <dc:format>image/svg+xml</dc:format>
        <dc:type rdf:resource="http://purl.org/dc/dcmitype/StillImage"/>
        <cc:license rdf:resource="http://creativecommons.org/licenses/publicdomain/"/>
        <dc:publisher>
          <cc:Agent rdf:about="http://openclipart.org/">
            <dc:title>Openclipart</dc:title>
          </cc:Agent>
        </dc:publisher>
        <dc:title>Adventurer hat</dc:title>
        <dc:date>2008-02-25T14:03:30</dc:date>
        <dc:description>A hat for an adventurer guy (professor, snake-fearing archaeologist or so)</dc:description>
        <dc:source>http://openclipart.org/detail/14831/adventurer-hat-by-nicubunu</dc:source>
        <dc:creator>
          <cc:Agent>
            <dc:title>nicubunu</dc:title>
          </cc:Agent>
        </dc:creator>
        <dc:subject>
          <rdf:Bag>
            <rdf:li>cartoon</rdf:li>
            <rdf:li>clip art</rdf:li>
            <rdf:li>clipart</rdf:li>
            <rdf:li>clothing</rdf:li>
            <rdf:li>hat</rdf:li>
            <rdf:li>image</rdf:li>
            <rdf:li>media</rdf:li>
            <rdf:li>people</rdf:li>
            <rdf:li>png</rdf:li>
            <rdf:li>public domain</rdf:li>
            <rdf:li>svg</rdf:li>
          </rdf:Bag>
        </dc:subject>
      </cc:Work>
      <cc:License rdf:about="http://creativecommons.org/licenses/publicdomain/">
        <cc:permits rdf:resource="http://creativecommons.org/ns#Reproduction"/>
        <cc:permits rdf:resource="http://creativecommons.org/ns#Distribution"/>
        <cc:permits rdf:resource="http://creativecommons.org/ns#DerivativeWorks"/>
      </cc:License>
    </rdf:RDF>
  </metadata>
</svg>
